<svg width="18" height="18" viewBox="0 0 18 18" fill="none" xmlns="http://www.w3.org/2000/svg">
<path d="M17.3332 9.00008C17.3332 4.39723 13.6027 0.666748 8.99984 0.666748C4.39699 0.666748 0.666504 4.39723 0.666504 9.00008C0.666504 13.1603 3.71338 16.6075 7.69775 17.2325V11.4089H5.58185V9.00008H7.69775V7.16414C7.69775 5.07591 8.94126 3.92196 10.8455 3.92196C11.757 3.92196 12.7108 4.08472 12.7108 4.08472V6.1355H11.6594C10.6242 6.1355 10.3019 6.77841 10.3019 7.43758V9.00008H12.6131L12.2437 11.4089H10.3019V17.2325C14.2863 16.6075 17.3332 13.1603 17.3332 9.00008Z" fill="#1877F2"/>
<path d="M12.2438 11.4089L12.6133 9H10.3021V7.4375C10.3021 6.77833 10.6244 6.13542 11.6595 6.13542H12.711V4.08464C12.711 4.08464 11.7572 3.92188 10.8457 3.92188C8.94144 3.92188 7.69793 5.07583 7.69793 7.16406V9H5.58203V11.4089H7.69793V17.2324C8.12273 17.2992 8.55731 17.3333 9.00002 17.3333C9.44273 17.3333 9.87731 17.2992 10.3021 17.2324V11.4089H12.2438Z" fill="white"/>
</svg>
