<svg width="20" height="20" viewBox="0 0 20 20" fill="none" xmlns="http://www.w3.org/2000/svg">
<path d="M10.0001 4.88897C11.5649 4.88897 12.6205 5.5649 13.2223 6.12971L15.5742 3.83341C14.1297 2.49082 12.2501 1.66675 10.0001 1.66675C6.74085 1.66675 3.92603 3.53712 2.55566 6.25934L5.25011 8.35193C5.92603 6.34267 7.79641 4.88897 10.0001 4.88897V4.88897Z" fill="#EA4335"/>
<path d="M18 10.1854C18 9.50021 17.9444 9.00021 17.8241 8.48169H10V11.5743H14.5926C14.5 12.3428 14 13.5002 12.8889 14.278L15.5185 16.315C17.0926 14.8613 18 12.7224 18 10.1854V10.1854Z" fill="#4285F4"/>
<path d="M5.2591 11.6482C5.08317 11.1296 4.98132 10.5741 4.98132 10C4.98132 9.42595 5.08317 8.87039 5.24984 8.35187L2.55539 6.25928C1.99058 7.38891 1.6665 8.65743 1.6665 10C1.6665 11.3426 1.99058 12.6111 2.55539 13.7408L5.2591 11.6482V11.6482Z" fill="#FBBC05"/>
<path d="M9.99964 18.3334C12.2496 18.3334 14.1385 17.5926 15.5182 16.3149L12.8885 14.2778C12.1848 14.7686 11.2404 15.1112 9.99964 15.1112C7.79593 15.1112 5.92556 13.6575 5.2589 11.6482L2.56445 13.7408C3.93482 16.463 6.74038 18.3334 9.99964 18.3334V18.3334Z" fill="#34A853"/>
</svg>
