<svg width="213" height="224" viewBox="0 0 213 224" fill="none" xmlns="http://www.w3.org/2000/svg">
<circle cx="106.5" cy="117.5" r="106.5" fill="#FFA24C" fill-opacity="0.3"/>
<path d="M162.344 58.0749V116.906H145.719V58.0749C145.719 35.7027 128.727 17.5111 107.824 17.5111C86.9205 17.5111 69.928 35.7027 69.928 58.0749V116.906H53.3027V58.0749C53.3027 26.0343 77.7599 0 107.824 0C137.887 0 162.344 26.0343 162.344 58.0749Z" fill="#FE7825"/>
<path d="M162.344 58.0749V116.906H145.719V58.0749C145.719 35.7027 128.727 17.5111 107.824 17.5111C86.9205 17.5111 69.928 35.7027 69.928 58.0749V116.906H53.3027V58.0749C53.3027 26.0343 77.7599 0 107.824 0C137.887 0 162.344 26.0343 162.344 58.0749Z" fill="url(#paint0_linear_467_6088)" fill-opacity="0.6"/>
<path d="M183.658 83.407H32V221H183.658V83.407Z" fill="#FF9431"/>
<path d="M183.647 83.407H107.824V221H183.647V83.407Z" fill="#FE7825"/>
<path d="M183.647 83.407H107.824V221H183.647V83.407Z" fill="url(#paint1_linear_467_6088)" fill-opacity="0.6"/>
<path d="M114.241 157.243L120.582 187.35H93.6399L99.9918 157.243C97.508 155.695 95.5958 153.381 94.5445 150.649C93.4932 147.918 93.3599 144.919 94.1649 142.105C94.9698 139.291 96.6691 136.816 99.0059 135.054C101.343 133.292 104.19 132.339 107.116 132.339C110.043 132.339 112.89 133.292 115.226 135.054C117.563 136.816 119.263 139.291 120.067 142.105C120.872 144.919 120.739 147.918 119.688 150.649C118.637 153.381 116.724 155.695 114.241 157.243Z" fill="#FF4F00"/>
<defs>
<linearGradient id="paint0_linear_467_6088" x1="26.5" y1="205.5" x2="32.945" y2="-0.158408" gradientUnits="userSpaceOnUse">
<stop offset="0.34375" stop-color="#DD4200"/>
<stop offset="0.609375" stop-color="#FF4F00"/>
<stop offset="0.848958" stop-color="#FF8A00"/>
</linearGradient>
<linearGradient id="paint1_linear_467_6088" x1="409.5" y1="173" x2="75.7177" y2="214.37" gradientUnits="userSpaceOnUse">
<stop offset="0.34375" stop-color="#DD4200"/>
<stop offset="0.609375" stop-color="#FF4F00"/>
<stop offset="0.848958" stop-color="#FF8A00"/>
</linearGradient>
</defs>
</svg>
