<svg width="121" height="138" viewBox="0 0 121 138" fill="none" xmlns="http://www.w3.org/2000/svg">
<g filter="url(#filter0_dd_511_8044)">
<rect x="19" y="9" width="79" height="79" rx="20" fill="white"/>
</g>
<g opacity="0.6">
<circle cx="51.1489" cy="44.149" r="17.6783" transform="rotate(30 51.1489 44.149)" fill="#FE7825"/>
<circle cx="51.1489" cy="44.149" r="17.6783" transform="rotate(30 51.1489 44.149)" fill="url(#paint0_linear_511_8044)"/>
</g>
<g opacity="0.8">
<circle cx="66.459" cy="52.9879" r="17.6783" transform="rotate(30 66.459 52.9879)" fill="#FE7825"/>
<circle cx="66.459" cy="52.9879" r="17.6783" transform="rotate(30 66.459 52.9879)" fill="url(#paint1_linear_511_8044)"/>
</g>
<path d="M25.9 128.175C24.6167 128.175 23.4667 127.967 22.45 127.55C21.4333 127.133 20.6167 126.517 20 125.7C19.4 124.883 19.0833 123.9 19.05 122.75H23.6C23.6667 123.4 23.8917 123.9 24.275 124.25C24.6583 124.583 25.1583 124.75 25.775 124.75C26.4083 124.75 26.9083 124.608 27.275 124.325C27.6417 124.025 27.825 123.617 27.825 123.1C27.825 122.667 27.675 122.308 27.375 122.025C27.0917 121.742 26.7333 121.508 26.3 121.325C25.8833 121.142 25.2833 120.933 24.5 120.7C23.3667 120.35 22.4417 120 21.725 119.65C21.0083 119.3 20.3917 118.783 19.875 118.1C19.3583 117.417 19.1 116.525 19.1 115.425C19.1 113.792 19.6917 112.517 20.875 111.6C22.0583 110.667 23.6 110.2 25.5 110.2C27.4333 110.2 28.9917 110.667 30.175 111.6C31.3583 112.517 31.9917 113.8 32.075 115.45H27.45C27.4167 114.883 27.2083 114.442 26.825 114.125C26.4417 113.792 25.95 113.625 25.35 113.625C24.8333 113.625 24.4167 113.767 24.1 114.05C23.7833 114.317 23.625 114.708 23.625 115.225C23.625 115.792 23.8917 116.233 24.425 116.55C24.9583 116.867 25.7917 117.208 26.925 117.575C28.0583 117.958 28.975 118.325 29.675 118.675C30.3917 119.025 31.0083 119.533 31.525 120.2C32.0417 120.867 32.3 121.725 32.3 122.775C32.3 123.775 32.0417 124.683 31.525 125.5C31.025 126.317 30.2917 126.967 29.325 127.45C28.3583 127.933 27.2167 128.175 25.9 128.175ZM39.2059 116.025C39.6225 115.375 40.1975 114.85 40.9309 114.45C41.6642 114.05 42.5225 113.85 43.5059 113.85C44.6559 113.85 45.6975 114.142 46.6309 114.725C47.5642 115.308 48.2975 116.142 48.8309 117.225C49.3809 118.308 49.6559 119.567 49.6559 121C49.6559 122.433 49.3809 123.7 48.8309 124.8C48.2975 125.883 47.5642 126.725 46.6309 127.325C45.6975 127.908 44.6559 128.2 43.5059 128.2C42.5392 128.2 41.6809 128 40.9309 127.6C40.1975 127.2 39.6225 126.683 39.2059 126.05V134.65H34.9309V114.05H39.2059V116.025ZM45.3059 121C45.3059 119.933 45.0059 119.1 44.4059 118.5C43.8225 117.883 43.0975 117.575 42.2309 117.575C41.3809 117.575 40.6559 117.883 40.0559 118.5C39.4725 119.117 39.1809 119.958 39.1809 121.025C39.1809 122.092 39.4725 122.933 40.0559 123.55C40.6559 124.167 41.3809 124.475 42.2309 124.475C43.0809 124.475 43.8059 124.167 44.4059 123.55C45.0059 122.917 45.3059 122.067 45.3059 121ZM58.2486 128.2C56.882 128.2 55.6486 127.908 54.5486 127.325C53.4653 126.742 52.607 125.908 51.9736 124.825C51.357 123.742 51.0486 122.475 51.0486 121.025C51.0486 119.592 51.3653 118.333 51.9986 117.25C52.632 116.15 53.4986 115.308 54.5986 114.725C55.6986 114.142 56.932 113.85 58.2986 113.85C59.6653 113.85 60.8986 114.142 61.9986 114.725C63.0986 115.308 63.9653 116.15 64.5986 117.25C65.232 118.333 65.5486 119.592 65.5486 121.025C65.5486 122.458 65.2236 123.725 64.5736 124.825C63.9403 125.908 63.0653 126.742 61.9486 127.325C60.8486 127.908 59.6153 128.2 58.2486 128.2ZM58.2486 124.5C59.0653 124.5 59.757 124.2 60.3236 123.6C60.907 123 61.1986 122.142 61.1986 121.025C61.1986 119.908 60.9153 119.05 60.3486 118.45C59.7986 117.85 59.1153 117.55 58.2986 117.55C57.4653 117.55 56.7736 117.85 56.2236 118.45C55.6736 119.033 55.3986 119.892 55.3986 121.025C55.3986 122.142 55.6653 123 56.1986 123.6C56.7486 124.2 57.432 124.5 58.2486 124.5ZM74.1666 128.2C72.7999 128.2 71.5666 127.908 70.4666 127.325C69.3833 126.742 68.5249 125.908 67.8916 124.825C67.2749 123.742 66.9666 122.475 66.9666 121.025C66.9666 119.592 67.2833 118.333 67.9166 117.25C68.5499 116.15 69.4166 115.308 70.5166 114.725C71.6166 114.142 72.8499 113.85 74.2166 113.85C75.5833 113.85 76.8166 114.142 77.9166 114.725C79.0166 115.308 79.8833 116.15 80.5166 117.25C81.1499 118.333 81.4666 119.592 81.4666 121.025C81.4666 122.458 81.1416 123.725 80.4916 124.825C79.8583 125.908 78.9833 126.742 77.8666 127.325C76.7666 127.908 75.5333 128.2 74.1666 128.2ZM74.1666 124.5C74.9833 124.5 75.6749 124.2 76.2416 123.6C76.8249 123 77.1166 122.142 77.1166 121.025C77.1166 119.908 76.8333 119.05 76.2666 118.45C75.7166 117.85 75.0333 117.55 74.2166 117.55C73.3833 117.55 72.6916 117.85 72.1416 118.45C71.5916 119.033 71.3166 119.892 71.3166 121.025C71.3166 122.142 71.5833 123 72.1166 123.6C72.6666 124.2 73.3499 124.5 74.1666 124.5ZM92.2346 113.9C93.8679 113.9 95.1679 114.433 96.1346 115.5C97.1179 116.55 97.6096 118 97.6096 119.85V128H93.3596V120.425C93.3596 119.492 93.1179 118.767 92.6346 118.25C92.1512 117.733 91.5012 117.475 90.6846 117.475C89.8679 117.475 89.2179 117.733 88.7346 118.25C88.2512 118.767 88.0096 119.492 88.0096 120.425V128H83.7346V114.05H88.0096V115.9C88.4429 115.283 89.0262 114.8 89.7596 114.45C90.4929 114.083 91.3179 113.9 92.2346 113.9Z" fill="#FE7825"/>
<path d="M25.9 128.175C24.6167 128.175 23.4667 127.967 22.45 127.55C21.4333 127.133 20.6167 126.517 20 125.7C19.4 124.883 19.0833 123.9 19.05 122.75H23.6C23.6667 123.4 23.8917 123.9 24.275 124.25C24.6583 124.583 25.1583 124.75 25.775 124.75C26.4083 124.75 26.9083 124.608 27.275 124.325C27.6417 124.025 27.825 123.617 27.825 123.1C27.825 122.667 27.675 122.308 27.375 122.025C27.0917 121.742 26.7333 121.508 26.3 121.325C25.8833 121.142 25.2833 120.933 24.5 120.7C23.3667 120.35 22.4417 120 21.725 119.65C21.0083 119.3 20.3917 118.783 19.875 118.1C19.3583 117.417 19.1 116.525 19.1 115.425C19.1 113.792 19.6917 112.517 20.875 111.6C22.0583 110.667 23.6 110.2 25.5 110.2C27.4333 110.2 28.9917 110.667 30.175 111.6C31.3583 112.517 31.9917 113.8 32.075 115.45H27.45C27.4167 114.883 27.2083 114.442 26.825 114.125C26.4417 113.792 25.95 113.625 25.35 113.625C24.8333 113.625 24.4167 113.767 24.1 114.05C23.7833 114.317 23.625 114.708 23.625 115.225C23.625 115.792 23.8917 116.233 24.425 116.55C24.9583 116.867 25.7917 117.208 26.925 117.575C28.0583 117.958 28.975 118.325 29.675 118.675C30.3917 119.025 31.0083 119.533 31.525 120.2C32.0417 120.867 32.3 121.725 32.3 122.775C32.3 123.775 32.0417 124.683 31.525 125.5C31.025 126.317 30.2917 126.967 29.325 127.45C28.3583 127.933 27.2167 128.175 25.9 128.175ZM39.2059 116.025C39.6225 115.375 40.1975 114.85 40.9309 114.45C41.6642 114.05 42.5225 113.85 43.5059 113.85C44.6559 113.85 45.6975 114.142 46.6309 114.725C47.5642 115.308 48.2975 116.142 48.8309 117.225C49.3809 118.308 49.6559 119.567 49.6559 121C49.6559 122.433 49.3809 123.7 48.8309 124.8C48.2975 125.883 47.5642 126.725 46.6309 127.325C45.6975 127.908 44.6559 128.2 43.5059 128.2C42.5392 128.2 41.6809 128 40.9309 127.6C40.1975 127.2 39.6225 126.683 39.2059 126.05V134.65H34.9309V114.05H39.2059V116.025ZM45.3059 121C45.3059 119.933 45.0059 119.1 44.4059 118.5C43.8225 117.883 43.0975 117.575 42.2309 117.575C41.3809 117.575 40.6559 117.883 40.0559 118.5C39.4725 119.117 39.1809 119.958 39.1809 121.025C39.1809 122.092 39.4725 122.933 40.0559 123.55C40.6559 124.167 41.3809 124.475 42.2309 124.475C43.0809 124.475 43.8059 124.167 44.4059 123.55C45.0059 122.917 45.3059 122.067 45.3059 121ZM58.2486 128.2C56.882 128.2 55.6486 127.908 54.5486 127.325C53.4653 126.742 52.607 125.908 51.9736 124.825C51.357 123.742 51.0486 122.475 51.0486 121.025C51.0486 119.592 51.3653 118.333 51.9986 117.25C52.632 116.15 53.4986 115.308 54.5986 114.725C55.6986 114.142 56.932 113.85 58.2986 113.85C59.6653 113.85 60.8986 114.142 61.9986 114.725C63.0986 115.308 63.9653 116.15 64.5986 117.25C65.232 118.333 65.5486 119.592 65.5486 121.025C65.5486 122.458 65.2236 123.725 64.5736 124.825C63.9403 125.908 63.0653 126.742 61.9486 127.325C60.8486 127.908 59.6153 128.2 58.2486 128.2ZM58.2486 124.5C59.0653 124.5 59.757 124.2 60.3236 123.6C60.907 123 61.1986 122.142 61.1986 121.025C61.1986 119.908 60.9153 119.05 60.3486 118.45C59.7986 117.85 59.1153 117.55 58.2986 117.55C57.4653 117.55 56.7736 117.85 56.2236 118.45C55.6736 119.033 55.3986 119.892 55.3986 121.025C55.3986 122.142 55.6653 123 56.1986 123.6C56.7486 124.2 57.432 124.5 58.2486 124.5ZM74.1666 128.2C72.7999 128.2 71.5666 127.908 70.4666 127.325C69.3833 126.742 68.5249 125.908 67.8916 124.825C67.2749 123.742 66.9666 122.475 66.9666 121.025C66.9666 119.592 67.2833 118.333 67.9166 117.25C68.5499 116.15 69.4166 115.308 70.5166 114.725C71.6166 114.142 72.8499 113.85 74.2166 113.85C75.5833 113.85 76.8166 114.142 77.9166 114.725C79.0166 115.308 79.8833 116.15 80.5166 117.25C81.1499 118.333 81.4666 119.592 81.4666 121.025C81.4666 122.458 81.1416 123.725 80.4916 124.825C79.8583 125.908 78.9833 126.742 77.8666 127.325C76.7666 127.908 75.5333 128.2 74.1666 128.2ZM74.1666 124.5C74.9833 124.5 75.6749 124.2 76.2416 123.6C76.8249 123 77.1166 122.142 77.1166 121.025C77.1166 119.908 76.8333 119.05 76.2666 118.45C75.7166 117.85 75.0333 117.55 74.2166 117.55C73.3833 117.55 72.6916 117.85 72.1416 118.45C71.5916 119.033 71.3166 119.892 71.3166 121.025C71.3166 122.142 71.5833 123 72.1166 123.6C72.6666 124.2 73.3499 124.5 74.1666 124.5ZM92.2346 113.9C93.8679 113.9 95.1679 114.433 96.1346 115.5C97.1179 116.55 97.6096 118 97.6096 119.85V128H93.3596V120.425C93.3596 119.492 93.1179 118.767 92.6346 118.25C92.1512 117.733 91.5012 117.475 90.6846 117.475C89.8679 117.475 89.2179 117.733 88.7346 118.25C88.2512 118.767 88.0096 119.492 88.0096 120.425V128H83.7346V114.05H88.0096V115.9C88.4429 115.283 89.0262 114.8 89.7596 114.45C90.4929 114.083 91.3179 113.9 92.2346 113.9Z" fill="url(#paint2_linear_511_8044)"/>
<defs>
<filter id="filter0_dd_511_8044" x="0" y="0" width="121" height="125" filterUnits="userSpaceOnUse" color-interpolation-filters="sRGB">
<feFlood flood-opacity="0" result="BackgroundImageFix"/>
<feColorMatrix in="SourceAlpha" type="matrix" values="0 0 0 0 0 0 0 0 0 0 0 0 0 0 0 0 0 0 127 0" result="hardAlpha"/>
<feOffset dx="2" dy="16"/>
<feGaussianBlur stdDeviation="10.5"/>
<feComposite in2="hardAlpha" operator="out"/>
<feColorMatrix type="matrix" values="0 0 0 0 0.1375 0 0 0 0 0.1375 0 0 0 0 0.1375 0 0 0 0.04 0"/>
<feBlend mode="normal" in2="BackgroundImageFix" result="effect1_dropShadow_511_8044"/>
<feColorMatrix in="SourceAlpha" type="matrix" values="0 0 0 0 0 0 0 0 0 0 0 0 0 0 0 0 0 0 127 0" result="hardAlpha"/>
<feOffset dx="1" dy="8"/>
<feGaussianBlur stdDeviation="8.5"/>
<feColorMatrix type="matrix" values="0 0 0 0 0.137255 0 0 0 0 0.137255 0 0 0 0 0.137255 0 0 0 0.04 0"/>
<feBlend mode="normal" in2="effect1_dropShadow_511_8044" result="effect2_dropShadow_511_8044"/>
<feBlend mode="normal" in="SourceGraphic" in2="effect2_dropShadow_511_8044" result="shape"/>
</filter>
<linearGradient id="paint0_linear_511_8044" x1="153.411" y1="50.9484" x2="19.056" y2="26.4707" gradientUnits="userSpaceOnUse">
<stop offset="0.369792" stop-color="#E64500" stop-opacity="0.81"/>
<stop offset="0.572917" stop-color="#FF5C00" stop-opacity="0.79"/>
<stop offset="0.927083" stop-color="#FF9921"/>
</linearGradient>
<linearGradient id="paint1_linear_511_8044" x1="168.721" y1="59.7873" x2="34.366" y2="35.3096" gradientUnits="userSpaceOnUse">
<stop offset="0.369792" stop-color="#E64500" stop-opacity="0.81"/>
<stop offset="0.572917" stop-color="#FF5C00" stop-opacity="0.79"/>
<stop offset="0.927083" stop-color="#FF9921"/>
</linearGradient>
<linearGradient id="paint2_linear_511_8044" x1="296.169" y1="126.308" x2="17.3244" y2="16.683" gradientUnits="userSpaceOnUse">
<stop offset="0.369792" stop-color="#E64500" stop-opacity="0.81"/>
<stop offset="0.572917" stop-color="#FF5C00" stop-opacity="0.79"/>
<stop offset="0.927083" stop-color="#FF9921"/>
</linearGradient>
</defs>
</svg>
