<svg width="36" height="36" viewBox="0 0 36 36" fill="none" xmlns="http://www.w3.org/2000/svg">
<path d="M36 24C36 30.6274 30.6274 36 24 36H12C5.37258 36 0 30.6274 0 24V12C0 5.37258 5.37258 0 12 0H24C30.6274 0 36 5.37258 36 12V24Z" fill="white"/>
<path d="M17.997 21.1746C13.684 21.1746 10 21.8546 10 24.5746C10 27.2956 13.661 27.9996 17.997 27.9996C22.31 27.9996 25.994 27.3206 25.994 24.5996C25.994 21.8786 22.334 21.1746 17.997 21.1746" fill="#FE7825"/>
<path d="M17.9971 18.5837C20.9351 18.5837 23.2891 16.2287 23.2891 13.2917C23.2891 10.3547 20.9351 7.99968 17.9971 7.99968C15.0601 7.99968 12.7051 10.3547 12.7051 13.2917C12.7051 16.2287 15.0601 18.5837 17.9971 18.5837" fill="#FFCD90"/>
</svg>
