<svg width="36" height="36" viewBox="0 0 36 36" fill="none" xmlns="http://www.w3.org/2000/svg">
<path d="M0 12C0 5.37258 5.37258 0 12 0H24C30.6274 0 36 5.37258 36 12V24C36 30.6274 30.6274 36 24 36H12C5.37258 36 0 30.6274 0 24V12Z" fill="white"/>
<mask id="mask0_3807_7856" style="mask-type:alpha" maskUnits="userSpaceOnUse" x="8" y="7" width="20" height="21">
<path fill-rule="evenodd" clip-rule="evenodd" d="M28 28H8.71515V7.27899H28V28Z" fill="white"/>
</mask>
<g mask="url(#mask0_3807_7856)">
<path fill-rule="evenodd" clip-rule="evenodd" d="M22.7977 12.56C22.5687 12.56 22.3397 12.531 22.1157 12.471C21.4397 12.289 20.8527 11.837 20.5047 11.23C20.2787 10.849 20.1537 10.404 20.1497 9.94999C20.1497 9.29999 19.6277 8.77899 18.9857 8.77899H17.7327C17.0937 8.77899 16.5717 9.29699 16.5687 9.93599C16.5727 10.642 16.2967 11.313 15.7917 11.818C15.2937 12.316 14.5977 12.615 13.9017 12.595C13.4457 12.584 13.0067 12.461 12.6197 12.241C12.0627 11.922 11.3517 12.112 11.0297 12.662L10.3657 13.769C10.2177 14.024 10.1747 14.344 10.2537 14.639C10.3317 14.934 10.5277 15.19 10.7917 15.341C11.4097 15.697 11.8507 16.271 12.0337 16.959C12.2147 17.634 12.1157 18.371 11.7627 18.978C11.5327 19.378 11.1957 19.715 10.7917 19.947C10.2497 20.264 10.0597 20.973 10.3747 21.525C10.3877 21.547 10.3997 21.57 10.4097 21.594L10.9957 22.61C11.3147 23.165 12.0247 23.356 12.5817 23.039C13.1837 22.683 13.8997 22.581 14.5877 22.762C15.2747 22.94 15.8507 23.375 16.2097 23.989C16.4397 24.373 16.5647 24.82 16.5687 25.275C16.5597 25.617 16.6797 25.924 16.8977 26.149C17.1147 26.373 17.4197 26.5 17.7327 26.5H18.9857C19.2957 26.5 19.5857 26.379 19.8047 26.161C20.0227 25.942 20.1417 25.651 20.1397 25.341C20.1607 23.879 21.3557 22.702 22.8027 22.702C23.2667 22.707 23.7137 22.832 24.1017 23.064C24.6467 23.374 25.3587 23.183 25.6777 22.628L26.3547 21.515C26.6647 20.977 26.4747 20.266 25.9227 19.945C25.1037 19.471 24.5927 18.587 24.5927 17.639C24.5927 16.691 25.1037 15.808 25.9247 15.333C26.4737 15.015 26.6637 14.308 26.3457 13.758L25.7147 12.67C25.5587 12.389 25.3037 12.186 25.0087 12.103C24.7147 12.021 24.3907 12.056 24.1207 12.206C23.7237 12.439 23.2617 12.56 22.7977 12.56ZM17.7327 7.27899H18.9857C20.4547 7.27899 21.6497 8.47299 21.6497 9.94199C21.6517 10.123 21.7037 10.311 21.8007 10.474C21.9577 10.748 22.2117 10.944 22.5047 11.022C22.7957 11.1 23.1147 11.057 23.3767 10.905C24.0047 10.555 24.7437 10.47 25.4197 10.66C26.0947 10.851 26.6777 11.315 27.0197 11.93L27.6447 13.007C28.3757 14.275 27.9407 15.9 26.6747 16.632C26.3157 16.839 26.0927 17.225 26.0927 17.639C26.0927 18.053 26.3157 18.44 26.6747 18.647C27.9417 19.383 28.3757 21.012 27.6457 22.28L26.9677 23.393C26.2467 24.647 24.6167 25.089 23.3457 24.359C23.1727 24.256 22.9847 24.204 22.7937 24.202C22.1707 24.202 21.6497 24.716 21.6397 25.348C21.6437 26.045 21.3687 26.714 20.8677 27.219C20.3647 27.723 19.6967 28 18.9857 28H17.7327C17.0167 28 16.3207 27.706 15.8217 27.195C15.3237 26.681 15.0487 25.976 15.0697 25.261C15.0677 25.1 15.0147 24.914 14.9187 24.751C14.7597 24.481 14.5087 24.291 14.2107 24.213C13.9127 24.139 13.6007 24.179 13.3357 24.336C12.0557 25.067 10.4267 24.629 9.69568 23.359L9.07268 22.28C9.05668 22.251 9.04268 22.223 9.03068 22.194C8.36868 20.943 8.81068 19.368 10.0407 18.649C10.2197 18.546 10.3647 18.402 10.4647 18.228C10.6197 17.959 10.6627 17.639 10.5847 17.345C10.5047 17.045 10.3137 16.796 10.0447 16.642C9.43768 16.293 8.98468 15.705 8.80368 15.026C8.62268 14.348 8.72168 13.612 9.07468 13.005L9.73868 11.899C10.4697 10.643 12.0987 10.208 13.3657 10.94C13.5347 11.037 13.7297 11.09 13.9237 11.095H13.9297C14.2187 11.095 14.5157 10.972 14.7317 10.757C14.9507 10.538 15.0707 10.246 15.0687 9.93599C15.0757 8.46699 16.2707 7.27899 17.7327 7.27899Z" fill="#313131"/>
</g>
<path fill-rule="evenodd" clip-rule="evenodd" d="M18.3547 19.5259C19.3947 19.5259 20.2407 18.6789 20.2407 17.6389C20.2407 16.5989 19.3947 15.7539 18.3547 15.7539C17.3147 15.7539 16.4687 16.5989 16.4687 17.6389C16.4687 18.6789 17.3147 19.5259 18.3547 19.5259ZM18.3547 14.2539C20.2217 14.2539 21.7407 15.7719 21.7407 17.6389C21.7407 19.5059 20.2217 21.0259 18.3547 21.0259C16.4877 21.0259 14.9687 19.5059 14.9687 17.6389C14.9687 15.7719 16.4877 14.2539 18.3547 14.2539Z" fill="#313131"/>
</svg>
